<svg width="64" height="97" viewBox="0 0 64 97" fill="none" xmlns="http://www.w3.org/2000/svg">
<path d="M13.2273 67.0909L13.5455 65.3182C14.4545 60.0758 15.6364 55.8939 17.0909 52.7727C18.5758 49.6515 20.3636 47.1364 22.4545 45.2273C24.5455 43.2879 26.9697 41.5303 29.7273 39.9545C31.7576 38.7424 33.6364 37.4848 35.3636 36.1818C37.0909 34.8788 38.5152 33.4394 39.6364 31.8636C40.7879 30.2576 41.5152 28.4697 41.8182 26.5C42.1515 24.4091 41.9545 22.5758 41.2273 21C40.5 19.4242 39.3788 18.2121 37.8636 17.3636C36.3485 16.5151 34.5606 16.0909 32.5 16.0909C30.5303 16.0909 28.5909 16.5303 26.6818 17.4091C24.7727 18.2576 23.1061 19.5303 21.6818 21.2273C20.2879 22.8939 19.3636 24.9697 18.9091 27.4545H0.363637C1.48485 21.3939 3.74242 16.3939 7.13636 12.4545C10.5606 8.48485 14.697 5.5303 19.5455 3.5909C24.4242 1.62121 29.6364 0.63636 35.1818 0.63636C41.1515 0.63636 46.2879 1.63636 50.5909 3.63636C54.8939 5.60606 58.0455 8.46969 60.0455 12.2273C62.0758 15.9848 62.6515 20.5151 61.7727 25.8182C61.197 29.3939 60.1061 32.5606 58.5 35.3182C56.9242 38.0455 54.9091 40.4697 52.4545 42.5909C50 44.6818 47.2121 46.5455 44.0909 48.1818C41.4849 49.6061 39.2879 51.0909 37.5 52.6364C35.7121 54.1515 34.2727 55.9242 33.1818 57.9545C32.0909 59.9545 31.2879 62.4091 30.7727 65.3182L30.4545 67.0909H13.2273ZM18.2727 96.1818C15.2121 96.1818 12.697 95.1212 10.7273 93C8.78788 90.8788 7.90909 88.303 8.09091 85.2727C8.30303 82.2727 9.56061 79.7424 11.8636 77.6818C14.197 75.5909 16.8788 74.5455 19.9091 74.5455C22.8182 74.5455 25.2727 75.5909 27.2727 77.6818C29.2727 79.7727 30.1515 82.303 29.9091 85.2727C29.7576 87.2727 29.1061 89.1061 27.9545 90.7727C26.8333 92.4091 25.4091 93.7273 23.6818 94.7273C21.9545 95.697 20.1515 96.1818 18.2727 96.1818Z" fill="#FF7063"/>
</svg>
